<?xml version="1.0" encoding="UTF-8"?>
<svg width="32" height="30" xmlns="http://www.w3.org/2000/svg">
<defs>
<style>.cls-1 {
        fill: #95e1d3;
        fill-rule: evenodd;
      }</style>
</defs>
<path class="cls-1" transform="translate(-391 -1396)" d="m422.06 1421.9-14.471 5.99a1.53 1.53 0 0 1-1.188 0l-14.471-5.99a1.5 1.5 0 0 1-0.935-1.39v-23a1.5 1.5 0 0 1 1.5-1.5 1.55 1.55 0 0 1 0.573 0.11 0.012 0.012 0 0 0 0.013 0.01l13.914 5.76 13.911-5.76a0.012 0.012 0 0 0 0.013-0.01 1.55 1.55 0 0 1 0.573-0.11 1.5 1.5 0 0 1 1.5 1.5v23a1.5 1.5 0 0 1-0.932 1.39zm-16.565-17.39-11.5-4.76v19.76l11.5 4.76v-19.76zm14.5-4.76-11.5 4.76v19.76l11.5-4.76v-19.76zm-9.121 6.89 5.5-2.5a1.593 1.593 0 0 1 0.621-0.13 1.5 1.5 0 0 1 0.621 2.87l-5.5 2.5a1.6 1.6 0 0 1-0.621 0.13 1.5 1.5 0 0 1-0.621-2.87zm0 5.5 5.5-2.5a1.593 1.593 0 0 1 0.621-0.13 1.5 1.5 0 0 1 0.621 2.87l-5.5 2.5v-0.01a1.445 1.445 0 0 1-0.621 0.14 1.5 1.5 0 0 1-0.621-2.87zm0 5.5 5.5-2.5a1.593 1.593 0 0 1 0.621-0.13 1.5 1.5 0 0 1 0.621 2.87l-5.5 2.5a1.6 1.6 0 0 1-0.621 0.13 1.5 1.5 0 0 1-0.621-2.87zm-13.879-13.63a1.6 1.6 0 0 1 0.621 0.13l5.5 2.5a1.5 1.5 0 0 1-0.621 2.87 1.593 1.593 0 0 1-0.621-0.13l-5.5-2.5a1.5 1.5 0 0 1 0.621-2.87zm0 5.5a1.6 1.6 0 0 1 0.621 0.13l5.5 2.5a1.5 1.5 0 0 1-0.621 2.87 1.439 1.439 0 0 1-0.621-0.14v0.01l-5.5-2.5a1.5 1.5 0 0 1 0.621-2.87zm0 5.5a1.6 1.6 0 0 1 0.621 0.13l5.5 2.5a1.5 1.5 0 0 1-0.621 2.87 1.593 1.593 0 0 1-0.621-0.13l-5.5-2.5a1.5 1.5 0 0 1 0.621-2.87z" data-name="BOOK 2"/>
</svg>
